<mxfile host="app.diagrams.net" modified="2023-05-28T15:53:32.001Z" agent="Mozilla/5.0 (Windows NT 10.0; Win64; x64) AppleWebKit/537.36 (KHTML, like Gecko) Chrome/112.0.0.0 Safari/537.36" etag="MBKWQnV5pAQ6ZMMOHr-Q" version="21.3.5" type="device">
  <diagram id="R2lEEEUBdFMjLlhIrx00" name="Page-1">
    <mxGraphModel dx="1372" dy="836" grid="1" gridSize="10" guides="1" tooltips="1" connect="1" arrows="1" fold="1" page="1" pageScale="1" pageWidth="850" pageHeight="1100" math="0" shadow="0" extFonts="Permanent Marker^https://fonts.googleapis.com/css?family=Permanent+Marker">
      <root>
        <mxCell id="0" />
        <mxCell id="1" parent="0" />
        <mxCell id="GSxFg-PIzHMh7uF5a8ec-13" value="Human Friend" style="swimlane;fontStyle=1;align=center;verticalAlign=top;childLayout=stackLayout;horizontal=1;startSize=26;horizontalStack=0;resizeParent=1;resizeParentMax=0;resizeLast=0;collapsible=1;marginBottom=0;" parent="1" vertex="1">
          <mxGeometry x="330" y="90" width="160" height="164" as="geometry" />
        </mxCell>
        <mxCell id="GSxFg-PIzHMh7uF5a8ec-17" value="+ Name: string" style="text;strokeColor=none;fillColor=none;align=left;verticalAlign=top;spacingLeft=4;spacingRight=4;overflow=hidden;rotatable=0;points=[[0,0.5],[1,0.5]];portConstraint=eastwest;" parent="GSxFg-PIzHMh7uF5a8ec-13" vertex="1">
          <mxGeometry y="26" width="160" height="26" as="geometry" />
        </mxCell>
        <mxCell id="GSxFg-PIzHMh7uF5a8ec-18" value="+ Birtday : date" style="text;strokeColor=none;fillColor=none;align=left;verticalAlign=top;spacingLeft=4;spacingRight=4;overflow=hidden;rotatable=0;points=[[0,0.5],[1,0.5]];portConstraint=eastwest;" parent="GSxFg-PIzHMh7uF5a8ec-13" vertex="1">
          <mxGeometry y="52" width="160" height="26" as="geometry" />
        </mxCell>
        <mxCell id="GSxFg-PIzHMh7uF5a8ec-15" value="" style="line;strokeWidth=1;fillColor=none;align=left;verticalAlign=middle;spacingTop=-1;spacingLeft=3;spacingRight=3;rotatable=0;labelPosition=right;points=[];portConstraint=eastwest;" parent="GSxFg-PIzHMh7uF5a8ec-13" vertex="1">
          <mxGeometry y="78" width="160" height="8" as="geometry" />
        </mxCell>
        <mxCell id="GSxFg-PIzHMh7uF5a8ec-43" value="Extends" style="endArrow=block;endSize=16;endFill=0;html=1;rounded=0;exitX=0.438;exitY=-0.006;exitDx=0;exitDy=0;exitPerimeter=0;" parent="GSxFg-PIzHMh7uF5a8ec-13" source="GSxFg-PIzHMh7uF5a8ec-27" edge="1">
          <mxGeometry x="0.4982" width="160" relative="1" as="geometry">
            <mxPoint x="-160" y="90" as="sourcePoint" />
            <mxPoint y="90" as="targetPoint" />
            <Array as="points">
              <mxPoint x="-90" y="90" />
            </Array>
            <mxPoint as="offset" />
          </mxGeometry>
        </mxCell>
        <mxCell id="GSxFg-PIzHMh7uF5a8ec-16" value="+ Voise" style="text;strokeColor=none;fillColor=none;align=left;verticalAlign=top;spacingLeft=4;spacingRight=4;overflow=hidden;rotatable=0;points=[[0,0.5],[1,0.5]];portConstraint=eastwest;" parent="GSxFg-PIzHMh7uF5a8ec-13" vertex="1">
          <mxGeometry y="86" width="160" height="26" as="geometry" />
        </mxCell>
        <mxCell id="GSxFg-PIzHMh7uF5a8ec-25" value="+ Sleep" style="text;strokeColor=none;fillColor=none;align=left;verticalAlign=top;spacingLeft=4;spacingRight=4;overflow=hidden;rotatable=0;points=[[0,0.5],[1,0.5]];portConstraint=eastwest;" parent="GSxFg-PIzHMh7uF5a8ec-13" vertex="1">
          <mxGeometry y="112" width="160" height="26" as="geometry" />
        </mxCell>
        <mxCell id="GSxFg-PIzHMh7uF5a8ec-24" value="+ Eat" style="text;strokeColor=none;fillColor=none;align=left;verticalAlign=top;spacingLeft=4;spacingRight=4;overflow=hidden;rotatable=0;points=[[0,0.5],[1,0.5]];portConstraint=eastwest;" parent="GSxFg-PIzHMh7uF5a8ec-13" vertex="1">
          <mxGeometry y="138" width="160" height="26" as="geometry" />
        </mxCell>
        <mxCell id="GSxFg-PIzHMh7uF5a8ec-27" value="Pet" style="swimlane;fontStyle=1;align=center;verticalAlign=top;childLayout=stackLayout;horizontal=1;startSize=26;horizontalStack=0;resizeParent=1;resizeParentMax=0;resizeLast=0;collapsible=1;marginBottom=0;" parent="1" vertex="1">
          <mxGeometry x="170" y="270" width="160" height="164" as="geometry" />
        </mxCell>
        <mxCell id="GSxFg-PIzHMh7uF5a8ec-28" value="+ Name: string" style="text;strokeColor=none;fillColor=none;align=left;verticalAlign=top;spacingLeft=4;spacingRight=4;overflow=hidden;rotatable=0;points=[[0,0.5],[1,0.5]];portConstraint=eastwest;" parent="GSxFg-PIzHMh7uF5a8ec-27" vertex="1">
          <mxGeometry y="26" width="160" height="26" as="geometry" />
        </mxCell>
        <mxCell id="GSxFg-PIzHMh7uF5a8ec-29" value="+ Birtday : date" style="text;strokeColor=none;fillColor=none;align=left;verticalAlign=top;spacingLeft=4;spacingRight=4;overflow=hidden;rotatable=0;points=[[0,0.5],[1,0.5]];portConstraint=eastwest;" parent="GSxFg-PIzHMh7uF5a8ec-27" vertex="1">
          <mxGeometry y="52" width="160" height="26" as="geometry" />
        </mxCell>
        <mxCell id="GSxFg-PIzHMh7uF5a8ec-30" value="" style="line;strokeWidth=1;fillColor=none;align=left;verticalAlign=middle;spacingTop=-1;spacingLeft=3;spacingRight=3;rotatable=0;labelPosition=right;points=[];portConstraint=eastwest;" parent="GSxFg-PIzHMh7uF5a8ec-27" vertex="1">
          <mxGeometry y="78" width="160" height="8" as="geometry" />
        </mxCell>
        <mxCell id="GSxFg-PIzHMh7uF5a8ec-31" value="+ Voise" style="text;strokeColor=none;fillColor=none;align=left;verticalAlign=top;spacingLeft=4;spacingRight=4;overflow=hidden;rotatable=0;points=[[0,0.5],[1,0.5]];portConstraint=eastwest;" parent="GSxFg-PIzHMh7uF5a8ec-27" vertex="1">
          <mxGeometry y="86" width="160" height="26" as="geometry" />
        </mxCell>
        <mxCell id="GSxFg-PIzHMh7uF5a8ec-32" value="+ Sleep" style="text;strokeColor=none;fillColor=none;align=left;verticalAlign=top;spacingLeft=4;spacingRight=4;overflow=hidden;rotatable=0;points=[[0,0.5],[1,0.5]];portConstraint=eastwest;" parent="GSxFg-PIzHMh7uF5a8ec-27" vertex="1">
          <mxGeometry y="112" width="160" height="26" as="geometry" />
        </mxCell>
        <mxCell id="GSxFg-PIzHMh7uF5a8ec-33" value="+ Eat" style="text;strokeColor=none;fillColor=none;align=left;verticalAlign=top;spacingLeft=4;spacingRight=4;overflow=hidden;rotatable=0;points=[[0,0.5],[1,0.5]];portConstraint=eastwest;" parent="GSxFg-PIzHMh7uF5a8ec-27" vertex="1">
          <mxGeometry y="138" width="160" height="26" as="geometry" />
        </mxCell>
        <mxCell id="GSxFg-PIzHMh7uF5a8ec-35" value="Pack Animal" style="swimlane;fontStyle=1;align=center;verticalAlign=top;childLayout=stackLayout;horizontal=1;startSize=26;horizontalStack=0;resizeParent=1;resizeParentMax=0;resizeLast=0;collapsible=1;marginBottom=0;" parent="1" vertex="1">
          <mxGeometry x="510" y="270" width="160" height="194" as="geometry" />
        </mxCell>
        <mxCell id="GSxFg-PIzHMh7uF5a8ec-36" value="+ Name: string" style="text;strokeColor=none;fillColor=none;align=left;verticalAlign=top;spacingLeft=4;spacingRight=4;overflow=hidden;rotatable=0;points=[[0,0.5],[1,0.5]];portConstraint=eastwest;" parent="GSxFg-PIzHMh7uF5a8ec-35" vertex="1">
          <mxGeometry y="26" width="160" height="26" as="geometry" />
        </mxCell>
        <mxCell id="GSxFg-PIzHMh7uF5a8ec-37" value="+ Birtday : date" style="text;strokeColor=none;fillColor=none;align=left;verticalAlign=top;spacingLeft=4;spacingRight=4;overflow=hidden;rotatable=0;points=[[0,0.5],[1,0.5]];portConstraint=eastwest;" parent="GSxFg-PIzHMh7uF5a8ec-35" vertex="1">
          <mxGeometry y="52" width="160" height="26" as="geometry" />
        </mxCell>
        <mxCell id="GSxFg-PIzHMh7uF5a8ec-46" value="&amp;nbsp;+ Lifting weight: int" style="text;whiteSpace=wrap;html=1;" parent="GSxFg-PIzHMh7uF5a8ec-35" vertex="1">
          <mxGeometry y="78" width="160" height="30" as="geometry" />
        </mxCell>
        <mxCell id="GSxFg-PIzHMh7uF5a8ec-38" value="" style="line;strokeWidth=1;fillColor=none;align=left;verticalAlign=middle;spacingTop=-1;spacingLeft=3;spacingRight=3;rotatable=0;labelPosition=right;points=[];portConstraint=eastwest;" parent="GSxFg-PIzHMh7uF5a8ec-35" vertex="1">
          <mxGeometry y="108" width="160" height="8" as="geometry" />
        </mxCell>
        <mxCell id="GSxFg-PIzHMh7uF5a8ec-39" value="+ Voise" style="text;strokeColor=none;fillColor=none;align=left;verticalAlign=top;spacingLeft=4;spacingRight=4;overflow=hidden;rotatable=0;points=[[0,0.5],[1,0.5]];portConstraint=eastwest;" parent="GSxFg-PIzHMh7uF5a8ec-35" vertex="1">
          <mxGeometry y="116" width="160" height="26" as="geometry" />
        </mxCell>
        <mxCell id="GSxFg-PIzHMh7uF5a8ec-40" value="+ Sleep" style="text;strokeColor=none;fillColor=none;align=left;verticalAlign=top;spacingLeft=4;spacingRight=4;overflow=hidden;rotatable=0;points=[[0,0.5],[1,0.5]];portConstraint=eastwest;" parent="GSxFg-PIzHMh7uF5a8ec-35" vertex="1">
          <mxGeometry y="142" width="160" height="26" as="geometry" />
        </mxCell>
        <mxCell id="GSxFg-PIzHMh7uF5a8ec-41" value="+ Eat" style="text;strokeColor=none;fillColor=none;align=left;verticalAlign=top;spacingLeft=4;spacingRight=4;overflow=hidden;rotatable=0;points=[[0,0.5],[1,0.5]];portConstraint=eastwest;" parent="GSxFg-PIzHMh7uF5a8ec-35" vertex="1">
          <mxGeometry y="168" width="160" height="26" as="geometry" />
        </mxCell>
        <mxCell id="GSxFg-PIzHMh7uF5a8ec-44" value="Extends" style="endArrow=block;endSize=16;endFill=0;html=1;rounded=0;entryX=1.005;entryY=0.166;entryDx=0;entryDy=0;entryPerimeter=0;exitX=0.5;exitY=0;exitDx=0;exitDy=0;" parent="1" source="GSxFg-PIzHMh7uF5a8ec-35" target="GSxFg-PIzHMh7uF5a8ec-16" edge="1">
          <mxGeometry x="0.413" y="-1" width="160" relative="1" as="geometry">
            <mxPoint x="640" y="290" as="sourcePoint" />
            <mxPoint x="710" y="140" as="targetPoint" />
            <Array as="points">
              <mxPoint x="590" y="230" />
              <mxPoint x="590" y="210" />
              <mxPoint x="590" y="180" />
              <mxPoint x="510" y="180" />
            </Array>
            <mxPoint as="offset" />
          </mxGeometry>
        </mxCell>
        <mxCell id="GSxFg-PIzHMh7uF5a8ec-47" value="Dog" style="swimlane;fontStyle=1;align=center;verticalAlign=top;childLayout=stackLayout;horizontal=1;startSize=26;horizontalStack=0;resizeParent=1;resizeParentMax=0;resizeLast=0;collapsible=1;marginBottom=0;" parent="1" vertex="1">
          <mxGeometry x="30" y="40" width="160" height="164" as="geometry" />
        </mxCell>
        <mxCell id="GSxFg-PIzHMh7uF5a8ec-48" value="+ Name: string" style="text;strokeColor=none;fillColor=none;align=left;verticalAlign=top;spacingLeft=4;spacingRight=4;overflow=hidden;rotatable=0;points=[[0,0.5],[1,0.5]];portConstraint=eastwest;" parent="GSxFg-PIzHMh7uF5a8ec-47" vertex="1">
          <mxGeometry y="26" width="160" height="26" as="geometry" />
        </mxCell>
        <mxCell id="GSxFg-PIzHMh7uF5a8ec-49" value="+ Birtday : date" style="text;strokeColor=none;fillColor=none;align=left;verticalAlign=top;spacingLeft=4;spacingRight=4;overflow=hidden;rotatable=0;points=[[0,0.5],[1,0.5]];portConstraint=eastwest;" parent="GSxFg-PIzHMh7uF5a8ec-47" vertex="1">
          <mxGeometry y="52" width="160" height="26" as="geometry" />
        </mxCell>
        <mxCell id="GSxFg-PIzHMh7uF5a8ec-50" value="" style="line;strokeWidth=1;fillColor=none;align=left;verticalAlign=middle;spacingTop=-1;spacingLeft=3;spacingRight=3;rotatable=0;labelPosition=right;points=[];portConstraint=eastwest;" parent="GSxFg-PIzHMh7uF5a8ec-47" vertex="1">
          <mxGeometry y="78" width="160" height="8" as="geometry" />
        </mxCell>
        <mxCell id="GSxFg-PIzHMh7uF5a8ec-51" value="+ Voise" style="text;strokeColor=none;fillColor=none;align=left;verticalAlign=top;spacingLeft=4;spacingRight=4;overflow=hidden;rotatable=0;points=[[0,0.5],[1,0.5]];portConstraint=eastwest;" parent="GSxFg-PIzHMh7uF5a8ec-47" vertex="1">
          <mxGeometry y="86" width="160" height="26" as="geometry" />
        </mxCell>
        <mxCell id="GSxFg-PIzHMh7uF5a8ec-52" value="+ Sleep" style="text;strokeColor=none;fillColor=none;align=left;verticalAlign=top;spacingLeft=4;spacingRight=4;overflow=hidden;rotatable=0;points=[[0,0.5],[1,0.5]];portConstraint=eastwest;" parent="GSxFg-PIzHMh7uF5a8ec-47" vertex="1">
          <mxGeometry y="112" width="160" height="26" as="geometry" />
        </mxCell>
        <mxCell id="GSxFg-PIzHMh7uF5a8ec-53" value="+ Eat" style="text;strokeColor=none;fillColor=none;align=left;verticalAlign=top;spacingLeft=4;spacingRight=4;overflow=hidden;rotatable=0;points=[[0,0.5],[1,0.5]];portConstraint=eastwest;" parent="GSxFg-PIzHMh7uF5a8ec-47" vertex="1">
          <mxGeometry y="138" width="160" height="26" as="geometry" />
        </mxCell>
        <mxCell id="GSxFg-PIzHMh7uF5a8ec-54" value="Cat" style="swimlane;fontStyle=1;align=center;verticalAlign=top;childLayout=stackLayout;horizontal=1;startSize=26;horizontalStack=0;resizeParent=1;resizeParentMax=0;resizeLast=0;collapsible=1;marginBottom=0;" parent="1" vertex="1">
          <mxGeometry x="10" y="490" width="160" height="164" as="geometry" />
        </mxCell>
        <mxCell id="GSxFg-PIzHMh7uF5a8ec-55" value="+ Name: string" style="text;strokeColor=none;fillColor=none;align=left;verticalAlign=top;spacingLeft=4;spacingRight=4;overflow=hidden;rotatable=0;points=[[0,0.5],[1,0.5]];portConstraint=eastwest;" parent="GSxFg-PIzHMh7uF5a8ec-54" vertex="1">
          <mxGeometry y="26" width="160" height="26" as="geometry" />
        </mxCell>
        <mxCell id="GSxFg-PIzHMh7uF5a8ec-56" value="+ Birtday : date" style="text;strokeColor=none;fillColor=none;align=left;verticalAlign=top;spacingLeft=4;spacingRight=4;overflow=hidden;rotatable=0;points=[[0,0.5],[1,0.5]];portConstraint=eastwest;" parent="GSxFg-PIzHMh7uF5a8ec-54" vertex="1">
          <mxGeometry y="52" width="160" height="26" as="geometry" />
        </mxCell>
        <mxCell id="GSxFg-PIzHMh7uF5a8ec-57" value="" style="line;strokeWidth=1;fillColor=none;align=left;verticalAlign=middle;spacingTop=-1;spacingLeft=3;spacingRight=3;rotatable=0;labelPosition=right;points=[];portConstraint=eastwest;" parent="GSxFg-PIzHMh7uF5a8ec-54" vertex="1">
          <mxGeometry y="78" width="160" height="8" as="geometry" />
        </mxCell>
        <mxCell id="GSxFg-PIzHMh7uF5a8ec-58" value="+ Voise" style="text;strokeColor=none;fillColor=none;align=left;verticalAlign=top;spacingLeft=4;spacingRight=4;overflow=hidden;rotatable=0;points=[[0,0.5],[1,0.5]];portConstraint=eastwest;" parent="GSxFg-PIzHMh7uF5a8ec-54" vertex="1">
          <mxGeometry y="86" width="160" height="26" as="geometry" />
        </mxCell>
        <mxCell id="GSxFg-PIzHMh7uF5a8ec-59" value="+ Sleep" style="text;strokeColor=none;fillColor=none;align=left;verticalAlign=top;spacingLeft=4;spacingRight=4;overflow=hidden;rotatable=0;points=[[0,0.5],[1,0.5]];portConstraint=eastwest;" parent="GSxFg-PIzHMh7uF5a8ec-54" vertex="1">
          <mxGeometry y="112" width="160" height="26" as="geometry" />
        </mxCell>
        <mxCell id="GSxFg-PIzHMh7uF5a8ec-60" value="+ Eat" style="text;strokeColor=none;fillColor=none;align=left;verticalAlign=top;spacingLeft=4;spacingRight=4;overflow=hidden;rotatable=0;points=[[0,0.5],[1,0.5]];portConstraint=eastwest;" parent="GSxFg-PIzHMh7uF5a8ec-54" vertex="1">
          <mxGeometry y="138" width="160" height="26" as="geometry" />
        </mxCell>
        <mxCell id="GSxFg-PIzHMh7uF5a8ec-61" value="Hamster" style="swimlane;fontStyle=1;align=center;verticalAlign=top;childLayout=stackLayout;horizontal=1;startSize=26;horizontalStack=0;resizeParent=1;resizeParentMax=0;resizeLast=0;collapsible=1;marginBottom=0;" parent="1" vertex="1">
          <mxGeometry x="190" y="490" width="160" height="164" as="geometry" />
        </mxCell>
        <mxCell id="GSxFg-PIzHMh7uF5a8ec-62" value="+ Name: string" style="text;strokeColor=none;fillColor=none;align=left;verticalAlign=top;spacingLeft=4;spacingRight=4;overflow=hidden;rotatable=0;points=[[0,0.5],[1,0.5]];portConstraint=eastwest;" parent="GSxFg-PIzHMh7uF5a8ec-61" vertex="1">
          <mxGeometry y="26" width="160" height="26" as="geometry" />
        </mxCell>
        <mxCell id="GSxFg-PIzHMh7uF5a8ec-63" value="+ Birtday : date" style="text;strokeColor=none;fillColor=none;align=left;verticalAlign=top;spacingLeft=4;spacingRight=4;overflow=hidden;rotatable=0;points=[[0,0.5],[1,0.5]];portConstraint=eastwest;" parent="GSxFg-PIzHMh7uF5a8ec-61" vertex="1">
          <mxGeometry y="52" width="160" height="26" as="geometry" />
        </mxCell>
        <mxCell id="GSxFg-PIzHMh7uF5a8ec-64" value="" style="line;strokeWidth=1;fillColor=none;align=left;verticalAlign=middle;spacingTop=-1;spacingLeft=3;spacingRight=3;rotatable=0;labelPosition=right;points=[];portConstraint=eastwest;" parent="GSxFg-PIzHMh7uF5a8ec-61" vertex="1">
          <mxGeometry y="78" width="160" height="8" as="geometry" />
        </mxCell>
        <mxCell id="GSxFg-PIzHMh7uF5a8ec-65" value="+ Voise" style="text;strokeColor=none;fillColor=none;align=left;verticalAlign=top;spacingLeft=4;spacingRight=4;overflow=hidden;rotatable=0;points=[[0,0.5],[1,0.5]];portConstraint=eastwest;" parent="GSxFg-PIzHMh7uF5a8ec-61" vertex="1">
          <mxGeometry y="86" width="160" height="26" as="geometry" />
        </mxCell>
        <mxCell id="GSxFg-PIzHMh7uF5a8ec-66" value="+ Sleep" style="text;strokeColor=none;fillColor=none;align=left;verticalAlign=top;spacingLeft=4;spacingRight=4;overflow=hidden;rotatable=0;points=[[0,0.5],[1,0.5]];portConstraint=eastwest;" parent="GSxFg-PIzHMh7uF5a8ec-61" vertex="1">
          <mxGeometry y="112" width="160" height="26" as="geometry" />
        </mxCell>
        <mxCell id="GSxFg-PIzHMh7uF5a8ec-67" value="+ Eat" style="text;strokeColor=none;fillColor=none;align=left;verticalAlign=top;spacingLeft=4;spacingRight=4;overflow=hidden;rotatable=0;points=[[0,0.5],[1,0.5]];portConstraint=eastwest;" parent="GSxFg-PIzHMh7uF5a8ec-61" vertex="1">
          <mxGeometry y="138" width="160" height="26" as="geometry" />
        </mxCell>
        <mxCell id="GSxFg-PIzHMh7uF5a8ec-68" value="Camel" style="swimlane;fontStyle=1;align=center;verticalAlign=top;childLayout=stackLayout;horizontal=1;startSize=26;horizontalStack=0;resizeParent=1;resizeParentMax=0;resizeLast=0;collapsible=1;marginBottom=0;" parent="1" vertex="1">
          <mxGeometry x="650" y="490" width="160" height="194" as="geometry" />
        </mxCell>
        <mxCell id="GSxFg-PIzHMh7uF5a8ec-69" value="+ Name: string" style="text;strokeColor=none;fillColor=none;align=left;verticalAlign=top;spacingLeft=4;spacingRight=4;overflow=hidden;rotatable=0;points=[[0,0.5],[1,0.5]];portConstraint=eastwest;" parent="GSxFg-PIzHMh7uF5a8ec-68" vertex="1">
          <mxGeometry y="26" width="160" height="26" as="geometry" />
        </mxCell>
        <mxCell id="GSxFg-PIzHMh7uF5a8ec-70" value="+ Birtday : date" style="text;strokeColor=none;fillColor=none;align=left;verticalAlign=top;spacingLeft=4;spacingRight=4;overflow=hidden;rotatable=0;points=[[0,0.5],[1,0.5]];portConstraint=eastwest;" parent="GSxFg-PIzHMh7uF5a8ec-68" vertex="1">
          <mxGeometry y="52" width="160" height="26" as="geometry" />
        </mxCell>
        <mxCell id="GSxFg-PIzHMh7uF5a8ec-71" value="&amp;nbsp;+ Lifting weight: int" style="text;whiteSpace=wrap;html=1;" parent="GSxFg-PIzHMh7uF5a8ec-68" vertex="1">
          <mxGeometry y="78" width="160" height="30" as="geometry" />
        </mxCell>
        <mxCell id="GSxFg-PIzHMh7uF5a8ec-72" value="" style="line;strokeWidth=1;fillColor=none;align=left;verticalAlign=middle;spacingTop=-1;spacingLeft=3;spacingRight=3;rotatable=0;labelPosition=right;points=[];portConstraint=eastwest;" parent="GSxFg-PIzHMh7uF5a8ec-68" vertex="1">
          <mxGeometry y="108" width="160" height="8" as="geometry" />
        </mxCell>
        <mxCell id="GSxFg-PIzHMh7uF5a8ec-73" value="+ Voise" style="text;strokeColor=none;fillColor=none;align=left;verticalAlign=top;spacingLeft=4;spacingRight=4;overflow=hidden;rotatable=0;points=[[0,0.5],[1,0.5]];portConstraint=eastwest;" parent="GSxFg-PIzHMh7uF5a8ec-68" vertex="1">
          <mxGeometry y="116" width="160" height="26" as="geometry" />
        </mxCell>
        <mxCell id="GSxFg-PIzHMh7uF5a8ec-74" value="+ Sleep" style="text;strokeColor=none;fillColor=none;align=left;verticalAlign=top;spacingLeft=4;spacingRight=4;overflow=hidden;rotatable=0;points=[[0,0.5],[1,0.5]];portConstraint=eastwest;" parent="GSxFg-PIzHMh7uF5a8ec-68" vertex="1">
          <mxGeometry y="142" width="160" height="26" as="geometry" />
        </mxCell>
        <mxCell id="GSxFg-PIzHMh7uF5a8ec-75" value="+ Eat" style="text;strokeColor=none;fillColor=none;align=left;verticalAlign=top;spacingLeft=4;spacingRight=4;overflow=hidden;rotatable=0;points=[[0,0.5],[1,0.5]];portConstraint=eastwest;" parent="GSxFg-PIzHMh7uF5a8ec-68" vertex="1">
          <mxGeometry y="168" width="160" height="26" as="geometry" />
        </mxCell>
        <mxCell id="GSxFg-PIzHMh7uF5a8ec-76" value="Horse" style="swimlane;fontStyle=1;align=center;verticalAlign=top;childLayout=stackLayout;horizontal=1;startSize=26;horizontalStack=0;resizeParent=1;resizeParentMax=0;resizeLast=0;collapsible=1;marginBottom=0;" parent="1" vertex="1">
          <mxGeometry x="440" y="530" width="160" height="194" as="geometry" />
        </mxCell>
        <mxCell id="GSxFg-PIzHMh7uF5a8ec-77" value="+ Name: string" style="text;strokeColor=none;fillColor=none;align=left;verticalAlign=top;spacingLeft=4;spacingRight=4;overflow=hidden;rotatable=0;points=[[0,0.5],[1,0.5]];portConstraint=eastwest;" parent="GSxFg-PIzHMh7uF5a8ec-76" vertex="1">
          <mxGeometry y="26" width="160" height="26" as="geometry" />
        </mxCell>
        <mxCell id="GSxFg-PIzHMh7uF5a8ec-78" value="+ Birtday : date" style="text;strokeColor=none;fillColor=none;align=left;verticalAlign=top;spacingLeft=4;spacingRight=4;overflow=hidden;rotatable=0;points=[[0,0.5],[1,0.5]];portConstraint=eastwest;" parent="GSxFg-PIzHMh7uF5a8ec-76" vertex="1">
          <mxGeometry y="52" width="160" height="26" as="geometry" />
        </mxCell>
        <mxCell id="GSxFg-PIzHMh7uF5a8ec-79" value="&amp;nbsp;+ Lifting weight: int" style="text;whiteSpace=wrap;html=1;" parent="GSxFg-PIzHMh7uF5a8ec-76" vertex="1">
          <mxGeometry y="78" width="160" height="30" as="geometry" />
        </mxCell>
        <mxCell id="GSxFg-PIzHMh7uF5a8ec-80" value="" style="line;strokeWidth=1;fillColor=none;align=left;verticalAlign=middle;spacingTop=-1;spacingLeft=3;spacingRight=3;rotatable=0;labelPosition=right;points=[];portConstraint=eastwest;" parent="GSxFg-PIzHMh7uF5a8ec-76" vertex="1">
          <mxGeometry y="108" width="160" height="8" as="geometry" />
        </mxCell>
        <mxCell id="GSxFg-PIzHMh7uF5a8ec-81" value="+ Voise" style="text;strokeColor=none;fillColor=none;align=left;verticalAlign=top;spacingLeft=4;spacingRight=4;overflow=hidden;rotatable=0;points=[[0,0.5],[1,0.5]];portConstraint=eastwest;" parent="GSxFg-PIzHMh7uF5a8ec-76" vertex="1">
          <mxGeometry y="116" width="160" height="26" as="geometry" />
        </mxCell>
        <mxCell id="GSxFg-PIzHMh7uF5a8ec-82" value="+ Sleep" style="text;strokeColor=none;fillColor=none;align=left;verticalAlign=top;spacingLeft=4;spacingRight=4;overflow=hidden;rotatable=0;points=[[0,0.5],[1,0.5]];portConstraint=eastwest;" parent="GSxFg-PIzHMh7uF5a8ec-76" vertex="1">
          <mxGeometry y="142" width="160" height="26" as="geometry" />
        </mxCell>
        <mxCell id="GSxFg-PIzHMh7uF5a8ec-83" value="+ Eat" style="text;strokeColor=none;fillColor=none;align=left;verticalAlign=top;spacingLeft=4;spacingRight=4;overflow=hidden;rotatable=0;points=[[0,0.5],[1,0.5]];portConstraint=eastwest;" parent="GSxFg-PIzHMh7uF5a8ec-76" vertex="1">
          <mxGeometry y="168" width="160" height="26" as="geometry" />
        </mxCell>
        <mxCell id="GSxFg-PIzHMh7uF5a8ec-84" value="Donkey" style="swimlane;fontStyle=1;align=center;verticalAlign=top;childLayout=stackLayout;horizontal=1;startSize=26;horizontalStack=0;resizeParent=1;resizeParentMax=0;resizeLast=0;collapsible=1;marginBottom=0;" parent="1" vertex="1">
          <mxGeometry x="630" y="25" width="160" height="194" as="geometry" />
        </mxCell>
        <mxCell id="GSxFg-PIzHMh7uF5a8ec-85" value="+ Name: string" style="text;strokeColor=none;fillColor=none;align=left;verticalAlign=top;spacingLeft=4;spacingRight=4;overflow=hidden;rotatable=0;points=[[0,0.5],[1,0.5]];portConstraint=eastwest;" parent="GSxFg-PIzHMh7uF5a8ec-84" vertex="1">
          <mxGeometry y="26" width="160" height="26" as="geometry" />
        </mxCell>
        <mxCell id="GSxFg-PIzHMh7uF5a8ec-86" value="+ Birtday : date" style="text;strokeColor=none;fillColor=none;align=left;verticalAlign=top;spacingLeft=4;spacingRight=4;overflow=hidden;rotatable=0;points=[[0,0.5],[1,0.5]];portConstraint=eastwest;" parent="GSxFg-PIzHMh7uF5a8ec-84" vertex="1">
          <mxGeometry y="52" width="160" height="26" as="geometry" />
        </mxCell>
        <mxCell id="GSxFg-PIzHMh7uF5a8ec-87" value="&amp;nbsp;+ Lifting weight: int" style="text;whiteSpace=wrap;html=1;" parent="GSxFg-PIzHMh7uF5a8ec-84" vertex="1">
          <mxGeometry y="78" width="160" height="30" as="geometry" />
        </mxCell>
        <mxCell id="GSxFg-PIzHMh7uF5a8ec-88" value="" style="line;strokeWidth=1;fillColor=none;align=left;verticalAlign=middle;spacingTop=-1;spacingLeft=3;spacingRight=3;rotatable=0;labelPosition=right;points=[];portConstraint=eastwest;" parent="GSxFg-PIzHMh7uF5a8ec-84" vertex="1">
          <mxGeometry y="108" width="160" height="8" as="geometry" />
        </mxCell>
        <mxCell id="GSxFg-PIzHMh7uF5a8ec-89" value="+ Voise" style="text;strokeColor=none;fillColor=none;align=left;verticalAlign=top;spacingLeft=4;spacingRight=4;overflow=hidden;rotatable=0;points=[[0,0.5],[1,0.5]];portConstraint=eastwest;" parent="GSxFg-PIzHMh7uF5a8ec-84" vertex="1">
          <mxGeometry y="116" width="160" height="26" as="geometry" />
        </mxCell>
        <mxCell id="GSxFg-PIzHMh7uF5a8ec-90" value="+ Sleep" style="text;strokeColor=none;fillColor=none;align=left;verticalAlign=top;spacingLeft=4;spacingRight=4;overflow=hidden;rotatable=0;points=[[0,0.5],[1,0.5]];portConstraint=eastwest;" parent="GSxFg-PIzHMh7uF5a8ec-84" vertex="1">
          <mxGeometry y="142" width="160" height="26" as="geometry" />
        </mxCell>
        <mxCell id="GSxFg-PIzHMh7uF5a8ec-91" value="+ Eat" style="text;strokeColor=none;fillColor=none;align=left;verticalAlign=top;spacingLeft=4;spacingRight=4;overflow=hidden;rotatable=0;points=[[0,0.5],[1,0.5]];portConstraint=eastwest;" parent="GSxFg-PIzHMh7uF5a8ec-84" vertex="1">
          <mxGeometry y="168" width="160" height="26" as="geometry" />
        </mxCell>
        <mxCell id="GSxFg-PIzHMh7uF5a8ec-92" value="Extends" style="endArrow=block;endSize=16;endFill=0;html=1;rounded=0;entryX=0;entryY=0.5;entryDx=0;entryDy=0;exitX=0.315;exitY=1.014;exitDx=0;exitDy=0;exitPerimeter=0;" parent="1" source="GSxFg-PIzHMh7uF5a8ec-53" target="GSxFg-PIzHMh7uF5a8ec-28" edge="1">
          <mxGeometry x="0.4982" width="160" relative="1" as="geometry">
            <mxPoint x="50.080000000000155" y="359.01599999999985" as="sourcePoint" />
            <mxPoint x="140" y="270" as="targetPoint" />
            <Array as="points">
              <mxPoint x="80" y="310" />
            </Array>
            <mxPoint as="offset" />
          </mxGeometry>
        </mxCell>
        <mxCell id="GSxFg-PIzHMh7uF5a8ec-94" value="Extends" style="endArrow=block;endSize=16;endFill=0;html=1;rounded=0;exitX=0.437;exitY=-0.003;exitDx=0;exitDy=0;exitPerimeter=0;entryX=-0.006;entryY=0.173;entryDx=0;entryDy=0;entryPerimeter=0;" parent="1" source="GSxFg-PIzHMh7uF5a8ec-54" target="GSxFg-PIzHMh7uF5a8ec-31" edge="1">
          <mxGeometry x="0.4982" width="160" relative="1" as="geometry">
            <mxPoint x="65.08000000000015" y="449.01599999999985" as="sourcePoint" />
            <mxPoint x="155" y="360" as="targetPoint" />
            <Array as="points">
              <mxPoint x="80" y="360" />
            </Array>
            <mxPoint as="offset" />
          </mxGeometry>
        </mxCell>
        <mxCell id="GSxFg-PIzHMh7uF5a8ec-95" value="Extends" style="endArrow=block;endSize=16;endFill=0;html=1;rounded=0;exitX=0.433;exitY=-0.01;exitDx=0;exitDy=0;exitPerimeter=0;entryX=0.559;entryY=1.042;entryDx=0;entryDy=0;entryPerimeter=0;" parent="1" source="GSxFg-PIzHMh7uF5a8ec-61" target="GSxFg-PIzHMh7uF5a8ec-33" edge="1">
          <mxGeometry x="-0.2278" y="10" width="160" relative="1" as="geometry">
            <mxPoint x="270.08000000000015" y="299.01599999999985" as="sourcePoint" />
            <mxPoint x="420" y="460" as="targetPoint" />
            <Array as="points">
              <mxPoint x="260" y="490" />
            </Array>
            <mxPoint as="offset" />
          </mxGeometry>
        </mxCell>
        <mxCell id="GSxFg-PIzHMh7uF5a8ec-96" value="Extends" style="endArrow=block;endSize=16;endFill=0;html=1;rounded=0;entryX=1;entryY=0.923;entryDx=0;entryDy=0;entryPerimeter=0;exitX=0.81;exitY=1.005;exitDx=0;exitDy=0;exitPerimeter=0;" parent="1" source="GSxFg-PIzHMh7uF5a8ec-91" target="GSxFg-PIzHMh7uF5a8ec-36" edge="1">
          <mxGeometry x="0.4982" width="160" relative="1" as="geometry">
            <mxPoint x="710.0800000000002" y="343.01599999999985" as="sourcePoint" />
            <mxPoint x="800" y="254" as="targetPoint" />
            <Array as="points">
              <mxPoint x="760" y="320" />
            </Array>
            <mxPoint as="offset" />
          </mxGeometry>
        </mxCell>
        <mxCell id="GSxFg-PIzHMh7uF5a8ec-97" value="Extends" style="endArrow=block;endSize=16;endFill=0;html=1;rounded=0;exitX=0.689;exitY=0.004;exitDx=0;exitDy=0;exitPerimeter=0;" parent="1" source="GSxFg-PIzHMh7uF5a8ec-68" edge="1">
          <mxGeometry x="0.4982" width="160" relative="1" as="geometry">
            <mxPoint x="740.0800000000002" y="433.99599999999987" as="sourcePoint" />
            <mxPoint x="670" y="350" as="targetPoint" />
            <Array as="points">
              <mxPoint x="760" y="350" />
              <mxPoint x="670" y="350" />
            </Array>
            <mxPoint as="offset" />
          </mxGeometry>
        </mxCell>
        <mxCell id="GSxFg-PIzHMh7uF5a8ec-98" value="Extends" style="endArrow=block;endSize=16;endFill=0;html=1;rounded=0;exitX=0.81;exitY=-0.001;exitDx=0;exitDy=0;exitPerimeter=0;entryX=0.38;entryY=0.988;entryDx=0;entryDy=0;entryPerimeter=0;" parent="1" source="GSxFg-PIzHMh7uF5a8ec-76" target="GSxFg-PIzHMh7uF5a8ec-41" edge="1">
          <mxGeometry x="-0.0985" width="160" relative="1" as="geometry">
            <mxPoint x="480.08000000000015" y="569.0159999999998" as="sourcePoint" />
            <mxPoint x="570" y="480" as="targetPoint" />
            <Array as="points">
              <mxPoint x="570" y="500" />
            </Array>
            <mxPoint as="offset" />
          </mxGeometry>
        </mxCell>
      </root>
    </mxGraphModel>
  </diagram>
</mxfile>
